<svg xmlns="http://www.w3.org/2000/svg" width="80" height="80" viewBox="0 0 80 80">
    <path fill="#666" fill-rule="evenodd" d="M.51.51h78.865v78.487H.51z"/>
    <path fill="#fff" d="M24.728 31.298l1.687-.14q.125 1.015.563 1.672.437.656 1.36 1.062.937.406 2.093.406 1.04 0 1.82-.312.8-.313 1.19-.844.39-.53.39-1.156 0-.64-.373-1.11-.375-.484-1.235-.812-.55-.22-2.423-.656-1.876-.453-2.626-.86-.965-.515-1.45-1.265-.47-.75-.47-1.688 0-1.03.58-1.922.59-.906 1.7-1.36 1.126-.468 2.5-.468 1.516 0 2.673.485 1.154.484 1.763 1.437.625.938.672 2.14l-1.72.126q-.14-1.282-.953-1.938-.798-.672-2.36-.672-1.625 0-2.375.61-.75.593-.75 1.437 0 .735.53 1.203.518.47 2.705.97 2.203.5 3.016.874 1.186.547 1.75 1.39.577.83.577 1.923t-.625 2.062q-.62.953-1.793 1.484-1.156.532-2.61.532-1.843 0-3.093-.532-1.25-.546-1.968-1.625-.703-1.07-.734-2.45zm12.85-7.312V22.08h1.672v1.906h-1.672zm0 11.687v-9.86h1.672v9.86h-1.672zm7.785-1.5l.235 1.485q-.704.14-1.266.14-.906 0-1.406-.28-.5-.298-.703-.75-.204-.47-.204-1.985v-5.657h-1.24v-1.312h1.23v-2.438l1.654-1v3.438h1.686v1.312h-1.68v5.75q0 .72.078.922.095.203.298.328.202.125.58.125.262 0 .73-.07zM53.64 32.5l1.72.22q-.407 1.5-1.517 2.344-1.093.828-2.812.828-2.15 0-3.42-1.328t-1.26-3.734q0-2.485 1.27-3.86 1.28-1.375 3.328-1.375 1.985 0 3.235 1.344 1.25 1.34 1.25 3.79 0 .14-.013.433h-7.35q.094 1.625.922 2.485.828.86 2.062.86.906 0 1.546-.47.657-.484 1.047-1.547zm-5.484-2.7h5.5q-.11-1.234-.625-1.86-.79-.968-2.07-.968-1.14 0-1.94.78-.78.767-.86 2.048zm-24.63 27.873V44.08h1.67v13.593h-1.67zm3.55-4.922q0-2.73 1.53-4.06 1.267-1.09 3.094-1.09 2.035 0 3.317 1.35 1.296 1.328 1.296 3.67 0 1.908-.577 3-.562 1.08-1.656 1.69-1.08.593-2.376.593-2.06 0-3.343-1.33-1.28-1.33-1.28-3.812zm1.72 0q0 1.9.827 2.83.828.94 2.078.94t2.07-.93q.83-.953.83-2.89 0-1.83-.83-2.766-.83-.937-2.06-.937-1.25 0-2.077.937-.83.936-.83 2.826zm8.984 5.74l1.61.25q.11.75.577 1.1.61.454 1.688.454 1.172 0 1.797-.47.625-.452.86-1.28.124-.516.11-2.157-1.095 1.297-2.72 1.297-2.03 0-3.156-1.47-1.11-1.47-1.11-3.517 0-1.407.516-2.595.515-1.203 1.484-1.844.97-.654 2.266-.654 1.75 0 2.875 1.404V47.82h1.547v8.515q0 2.312-.47 3.265-.468.97-1.483 1.516-1.01.563-2.5.563-1.76 0-2.86-.8-1.07-.8-1.03-2.39zm1.375-5.92q0 1.957.766 2.848.79.89 1.94.89 1.14 0 1.92-.89t.78-2.782q0-1.81-.81-2.717-.79-.925-1.92-.925-1.11 0-1.89.906-.78.89-.78 2.67zm8.673.19q0-2.732 1.53-4.06 1.266-1.094 3.095-1.094 2.03 0 3.312 1.344 1.297 1.327 1.297 3.67 0 1.907-.578 3-.563 1.08-1.656 1.69-1.08.592-2.375.592-2.063 0-3.344-1.33-1.29-1.33-1.29-3.812zm1.718 0q0 1.89.828 2.83.83.938 2.08.938t2.06-.937q.83-.954.83-2.89 0-1.83-.83-2.767-.827-.937-2.06-.937-1.25 0-2.08.937-.828.936-.828 2.826z"/>
</svg>
