<svg xmlns="http://www.w3.org/2000/svg" viewBox="-221 230 56 41"><path d="M-167 232c-1.9-1.9-3.3-2-26-2s-24.1.1-26 2c-1.8 1.8-2 3.3-2 18.5s.2 16.7 2 18.5c1.9 1.9 3.3 2 26 2s24.1-.1 26-2c1.8-1.8 2-3.3 2-18.5s-.2-16.7-2-18.5zm-25.9 3c20 0 21.1.1 19.8 1.7-3.4 4.7-18.5 19.3-19.9 19.3-1.5 0-21-18.8-21-20.2 0-.5 9.5-.8 21.1-.8zm-24 6.1l10.5 11.4-9.9 10.3-.6-21.7zM-193 267h-20.4l5.3-5.4 5.4-5.5 2.9 2.2c1.8 1.3 4.4 2.2 6.8 2.2s5-.9 6.8-2.2l2.9-2.2 5.4 5.5 5.3 5.4H-193zm23.7-4.5L-180 252l10.7-10.9v21.4z"/></svg>