<svg id="Layer_1" data-name="Layer 1" xmlns="http://www.w3.org/2000/svg" viewBox="0 0 17.92 17.59">
  <title>Artboard 11</title>
  <path d="M1,4.36a3.54,3.54,0,0,0,1.48,3.2,4.21,4.21,0,0,0,2.23.6h.28a2.88,2.88,0,0,0,.59,2h0C4.2,10.16,0,10.43,0,13.89s3.86,3.7,4.64,3.7h.25a7.14,7.14,0,0,0,3-.64,4,4,0,0,0,2.33-3.88A4.76,4.76,0,0,0,8.13,9.49c-.53-.47-1-.87-1-1.27s.34-.7.76-1.08A3.86,3.86,0,0,0,9.24,4c0-1.46-.19-2.43-1.35-3A4.34,4.34,0,0,1,8.65.8C9.28.72,10.2.62,10.2.1V0H5.6S1,.17,1,4.39Zm7.42,9c.09,1.41-1.11,2.44-2.92,2.58S2.11,15.25,2,13.85A2.3,2.3,0,0,1,2.85,12a3.83,3.83,0,0,1,2.28-.93h.31a2.66,2.66,0,0,1,2.93,2.32Zm-1.2-10C7.63,5,6.95,6.64,5.86,6.94A1.42,1.42,0,0,1,5.48,7c-1,0-2-1-2.35-2.39a3.48,3.48,0,0,1,0-2.12A1.82,1.82,0,0,1,4.34,1.26a1.26,1.26,0,0,1,.38-.06c1.2,0,2,.5,2.45,2.18Zm7.75,3.46v-3H13v3H10v1.9h3v3h1.9v-3h3V6.85Z"/>
</svg>
