<svg xmlns="http://www.w3.org/2000/svg" viewBox="0 0 512 512">
  <path d="M373.66 0H138.34C62.06 0 0 62.06 0 138.34v235.32C0 449.94 62.06 512 138.34 512h235.32C449.94 512 512 449.94 512 373.66V138.34C512 62.06 449.94 0 373.66 0zm96.976 373.66c0 53.472-43.503 96.976-96.977 96.976H138.34c-53.472 0-96.976-43.503-96.976-96.977V138.34c0-53.472 43.503-96.976 96.977-96.976h235.32c53.472 0 96.976 43.503 96.976 96.977v235.32z"/>
  <path d="M370.586 238.14c-3.64-24.546-14.84-46.794-32.386-64.34-17.547-17.547-39.795-28.747-64.34-32.386-11.177-1.657-22.508-1.657-33.683 0-30.336 4.5-57.103 20.54-75.372 45.172-18.27 24.63-25.854 54.903-21.355 85.237 4.5 30.335 20.54 57.102 45.172 75.372 19.996 14.83 43.706 22.62 68.153 22.62 5.667 0 11.375-.42 17.083-1.266 30.336-4.5 57.103-20.542 75.372-45.173 18.27-24.63 25.855-54.9 21.356-85.236zM267.79 327.633c-19.404 2.882-38.77-1.973-54.526-13.66-15.757-11.687-26.02-28.81-28.896-48.216-2.878-19.405 1.973-38.77 13.66-54.527 11.688-15.758 28.81-26.02 48.217-28.898 3.574-.53 7.173-.795 10.772-.795s7.2.265 10.773.796c32.23 4.78 57.098 29.645 61.878 61.877 5.94 40.058-21.817 77.482-61.877 83.422zM400.05 111.95c-3.853-3.85-9.184-6.057-14.626-6.057S374.65 108.1 370.8 111.95c-3.852 3.853-6.06 9.175-6.06 14.626 0 5.45 2.208 10.773 6.06 14.625 3.85 3.852 9.182 6.06 14.624 6.06s10.773-2.207 14.625-6.06c3.85-3.85 6.057-9.182 6.057-14.624 0-5.443-2.207-10.774-6.058-14.625z"/>
</svg>
