<?xml version="1.0" encoding="utf-8"?>
<svg version="1.1" id="grid" xmlns="http://www.w3.org/2000/svg" xmlns:xlink="http://www.w3.org/1999/xlink" x="0px" y="0px"
viewBox="-34.571 -1.141 18.251 18.24" enable-background="new -34.571 -1.141 18.251 18.24"
	 xml:space="preserve">
<path d="M-16.32,16.1c0.002-0.27-0.106-0.529-0.3-0.719l-5.16-5.161c0.6-0.791,1.013-1.707,1.21-2.68l0,0
	c0.109-0.52,0.163-1.049,0.16-1.58c0.02-1.883-0.736-3.692-2.09-5c-1.297-1.354-3.095-2.113-4.97-2.1
	c-1.879-0.022-3.686,0.726-5,2.07l0,0c-1.363,1.316-2.123,3.136-2.1,5.03c-0.029,1.881,0.72,3.69,2.07,5
	c1.309,1.354,3.117,2.11,5,2.09c1.539,0.026,3.041-0.471,4.26-1.41l5.16,5.161c0.189,0.193,0.449,0.301,0.72,0.299
	c0.552,0,1-0.447,1-1 M-22.56,7.1L-22.56,7.1c-0.207,0.928-0.684,1.773-1.37,2.43l0,0c-0.923,0.966-2.204,1.509-3.54,1.5
	c-1.354,0.021-2.657-0.518-3.6-1.49c-0.975-0.934-1.518-2.23-1.5-3.58c-0.015-1.352,0.528-2.65,1.5-3.59l0,0
	c0.94-0.978,2.243-1.524,3.6-1.51c1.35-0.018,2.646,0.525,3.58,1.5c0.972,0.943,1.511,2.246,1.49,3.6
	c-0.016,0.388-0.072,0.774-0.17,1.15L-22.56,7.1z"/>
</svg>
