<svg xmlns="http://www.w3.org/2000/svg" width="14.71mm" height="14.71mm" viewBox="0 0 41.71 41.71">
  <defs>
    <style>
      .fe4a2a6e-a4a5-4245-8507-e0920ceb8a2f {
        fill: #fff;
      }
    </style>
  </defs>
  <title>Artboard 101</title>
  <g id="64921f28-b037-4811-942b-6d82a9493e66" data-name="Layer 1">
    <path class="fe4a2a6e-a4a5-4245-8507-e0920ceb8a2f" d="M16.65,31.66a1,1,0,0,1-1-1l-.23-19.62A1,1,0,0,1,17,10.23l13.63,10a1,1,0,0,1,0,1.62l-13.4,9.65A1,1,0,0,1,16.65,31.66ZM17.45,13l.18,15.7L28.35,21Z"/>
    <path class="fe4a2a6e-a4a5-4245-8507-e0920ceb8a2f" d="M20.85,41.71A20.85,20.85,0,1,1,41.71,20.85,20.88,20.88,0,0,1,20.85,41.71Zm0-39A18.16,18.16,0,1,0,39,20.85,18.18,18.18,0,0,0,20.85,2.69Z"/>
  </g>
</svg>
