<svg xmlns="http://www.w3.org/2000/svg" viewBox="0 0 20.791 24.061">
    <path d="M10.584 2.219c-0.168-0.028-0.389-0.028-0.558 0 -0.411 0.077-1.137 0.34-1.405 1.22 0 0-0.059 0.441-0.059 0.629 0 0.187 0 3.123 0 3.123s0.013 0.537 0.31 1.004c0.224 0.355 0.616 0.664 1.237 0.732 0.086 0.011 0.363 0.011 0.462-0.002 0.585-0.086 0.96-0.39 1.181-0.73 0.294-0.467 0.303-1.004 0.303-1.004s0-2.937 0-3.123c0-0.188-0.057-0.629-0.057-0.629C11.727 2.55 10.981 2.289 10.584 2.219zM10.873 4.067c0 0 0 2.374 0 3.123S10.31 7.88 10.31 7.88 9.685 7.939 9.685 7.19V4.067c0-0.879 0.625-0.812 0.625-0.812C10.936 3.256 10.873 4.067 10.873 4.067zM15.309 2.253v5.065c-0.18 0.437-0.683 0.562-0.683 0.562 -0.44 0-0.38-0.312-0.38-0.312V2.253h-1.189c0 0 0 5.065 0 5.687 0 0.629 0.319 1.001 0.943 1.001 0.626 0 1.309-0.811 1.309-0.811v0.748h1.188V2.253H15.309zM6.25 3.438L5.309 0H3.932l1.691 5.251v3.568h1.246V5.251L8.496 0H7.186L6.25 3.438z"/>
    <path d="M17.828 16.436c0 0-0.059-0.693-0.566-0.693 -0.502 0-0.633 0.568-0.633 0.693 0 0.123 0 0.818 0 0.818h1.199V16.436zM18.65 10.573c-1.447-0.25-3.095-0.188-8.316-0.25 -3.53 0-5.305 0.062-5.545 0.062 -2.273 0.126-3.848-0.189-4.418 2.274C0.127 14.042 0 15.807 0 17.155c0.127 2.936-0.133 6.461 2.707 6.719 1.453 0.129 5.229 0.188 7.719 0.188 3.404 0 7.089-0.064 8.356-0.316 0.551-0.135 1.031-0.705 1.192-0.943 0.734-0.99 0.75-2.479 0.816-5.672C20.662 14.42 20.857 10.889 18.65 10.573zM6.109 13.725c-0.061 0-1.445 0-1.445 0v7.629h-1.33v-7.629H1.947v-1.324h4.162C6.109 12.401 6.172 13.725 6.109 13.725zM9.826 21.417H8.625v-0.764c0 0-0.629 0.824-1.32 0.824 -0.695 0-0.943-0.439-0.943-1.258 0-0.824 0-5.482 0-5.482h1.19v5.354c0 0 0 0.254 0.325 0.254 0.305 0 0.748-0.445 0.748-0.57 0-0.121 0-5.037 0-5.037h1.201V21.417zM14.43 20.219c0 0-0.135 1.258-0.889 1.258s-1.195-0.439-1.443-0.756v0.695h-1.195v-8.952h1.195v2.899c0 0 0.636-0.756 1.195-0.756 0.566 0 1.137 0.377 1.137 1.199C14.43 16.622 14.43 20.219 14.43 20.219zM18.965 20.219c-0.183 1.135-1.578 1.258-1.578 1.258 -2.019 0-1.954-1.893-1.954-1.893s0-2.895 0-3.148 0.123-0.629 0.123-0.629c0.137-0.381 0.267-1.133 1.77-1.133 1.764 0 1.704 1.762 1.704 1.762v1.83h-2.4c0 0 0 0.941 0 1.318s0.191 0.76 0.696 0.76c0.503 0 0.503-0.76 0.503-0.76v-0.498h1.201C19.029 19.086 19.089 19.395 18.965 20.219zM12.733 15.743c-0.326 0-0.576 0.254-0.576 0.254v4.094c0.188 0.254 0.576 0.254 0.576 0.254 0.497 0 0.497-0.57 0.497-0.57s0-2.898 0-3.338S13.041 15.743 12.733 15.743z"/>
</svg>
